# xmcd
# 
# Track frame offsets:
#     150
#     6857
#     21822
#     35325
#     48637
#     67615
#     82005
#     98447
#     115500
#     117242
#     132857
#     149327
#     163407
#     181987
#     182837
# 
# Disc length: 3191
# 
# Revision: 15
# Processed by: cddbd v1.5.2PL0 Copyright (c) Steve Scherf et al.
# Submitted via: BonkEnc v1.0
# 
DISCID=c00c750f
DTITLE=Beastie Boys - Paul’s Boutique
DYEAR=1989
DGENRE=Rap
TTITLE0=To All the Girls
TTITLE1=Shake Your Rump
TTITLE2=Johnny Ryall
TTITLE3=Egg Man
TTITLE4=High Plains Drifter
TTITLE5=The Sounds of Science
TTITLE6=3-Minute Rule
TTITLE7=Hey Ladies
TTITLE8=5-Piece Chicken Dinner
TTITLE9=Looking Down The Barrel of a Gun
TTITLE10=Car Thief
TTITLE11=What Comes Around
TTITLE12=Shadrach
TTITLE13=Ask for Janice
TTITLE14=B-Boy Bouillabaisse
EXTD=
EXTT0=
EXTT1=
EXTT2=
EXTT3=
EXTT4=
EXTT5=
EXTT6=
EXTT7=
EXTT8=
EXTT9=
EXTT10=
EXTT11=
EXTT12=
EXTT13=
EXTT14=
PLAYORDER=
